<svg xmlns="http://www.w3.org/2000/svg" width="20" height="20" viewBox="0 0 20 20" fill="#969696">
<path d="M9.16663 14.9998H10.8333V13.3332H9.16663V14.9998ZM9.99996 1.6665C8.90561 1.6665 7.82198 1.88205 6.81093 2.30084C5.79988 2.71963 4.88122 3.33346 4.1074 4.10728C2.5446 5.67008 1.66663 7.7897 1.66663 9.99984C1.66663 12.21 2.5446 14.3296 4.1074 15.8924C4.88122 16.6662 5.79988 17.28 6.81093 17.6988C7.82198 18.1176 8.90561 18.3332 9.99996 18.3332C12.2101 18.3332 14.3297 17.4552 15.8925 15.8924C17.4553 14.3296 18.3333 12.21 18.3333 9.99984C18.3333 8.90549 18.1177 7.82185 17.699 6.81081C17.2802 5.79976 16.6663 4.8811 15.8925 4.10728C15.1187 3.33346 14.2 2.71963 13.189 2.30084C12.1779 1.88205 11.0943 1.6665 9.99996 1.6665ZM9.99996 16.6665C6.32496 16.6665 3.33329 13.6748 3.33329 9.99984C3.33329 6.32484 6.32496 3.33317 9.99996 3.33317C13.675 3.33317 16.6666 6.32484 16.6666 9.99984C16.6666 13.6748 13.675 16.6665 9.99996 16.6665ZM9.99996 4.99984C9.1159 4.99984 8.26806 5.35103 7.64294 5.97615C7.01782 6.60127 6.66663 7.44912 6.66663 8.33317H8.33329C8.33329 7.89114 8.50889 7.46722 8.82145 7.15466C9.13401 6.8421 9.55793 6.6665 9.99996 6.6665C10.442 6.6665 10.8659 6.8421 11.1785 7.15466C11.491 7.46722 11.6666 7.89114 11.6666 8.33317C11.6666 9.99984 9.16663 9.7915 9.16663 12.4998H10.8333C10.8333 10.6248 13.3333 10.4165 13.3333 8.33317C13.3333 7.44912 12.9821 6.60127 12.357 5.97615C11.7319 5.35103 10.884 4.99984 9.99996 4.99984Z" fill="#969696"/>
</svg>
