<svg width="34" height="22" viewBox="0 0 34 22" fill="#484848" xmlns="http://www.w3.org/2000/svg">
<path d="M32.3715 3.4518C32.1847 2.78566 31.8207 2.18256 31.3184 1.70663C30.8019 1.21607 30.1688 0.865156 29.4789 0.687017C26.897 0.00681409 16.5529 0.00681424 16.5529 0.00681424C12.2405 -0.0422254 7.92926 0.173463 3.64337 0.652663C2.95347 0.843963 2.32157 1.20272 1.80386 1.69702C1.29518 2.18621 0.926732 2.78946 0.734258 3.45043C0.271898 5.94003 0.0472522 8.46791 0.0633485 11C0.0468507 13.5298 0.270946 16.0569 0.734258 18.5496C0.922608 19.2078 1.28968 19.8083 1.79974 20.2934C2.3098 20.7784 2.94496 21.1288 3.64337 21.3143C6.25964 21.9932 16.5529 21.9932 16.5529 21.9932C20.8707 22.0423 25.1875 21.8266 29.4789 21.3473C30.1688 21.1692 30.8019 20.8183 31.3184 20.3277C31.8206 19.8519 32.1841 19.2487 32.3701 18.5825C32.8446 16.0939 33.0752 13.565 33.0589 11.0316C33.0946 8.48751 32.8642 5.94665 32.3715 3.45043V3.4518ZM13.2643 15.7051V6.29629L21.8707 11.0014L13.2643 15.7051Z" fill="#484848"/>
</svg>
